<svg xmlns="http://www.w3.org/2000/svg" xmlns:xlink="http://www.w3.org/1999/xlink" width="136" height="20" viewBox="0 0 136 20">
    <defs>
        <path id="a" d="M0 0h200v46H0z"/>
    </defs>
    <g fill="none" fill-rule="evenodd" transform="translate(0 -13)">
        <mask id="b" fill="#fff">
            <use xlink:href="#a"/>
        </mask>
        <g fill-rule="nonzero" mask="url(#b)">
            <g fill="#333">
                <path d="M10.142 17.978c-.403-.06-.749-.119-1.152-.119a3.561 3.561 0 0 0-1.671.594 6.165 6.165 0 0 0-1.268.89c-.23.238-.461.416-.576.595l-.23-1.782L0 18.394v2.078l2.017.534v8.49L0 30.15v2.078h8.183V30.15l-2.42-.653V22.55l.345-.356a3.265 3.265 0 0 1 1.038-.713 2.616 2.616 0 0 1 1.325-.356l.346 2.138h2.19l.23-4.929-.23-.118c-.288-.12-.576-.178-.865-.238zM19.132 17.919a6.104 6.104 0 0 0-4.956 2.018c-1.21 1.366-1.786 3.207-1.786 5.522 0 2.197.518 3.92 1.671 5.166 1.153 1.247 2.766 1.84 4.898 1.84.98 0 2.017-.177 2.94-.593.69-.238 1.382-.534 2.016-.95.346-.238.634-.416.807-.594l-1.095-2.078-.576.297c-.519.237-1.037.475-1.614.594-.691.178-1.325.297-2.017.297a2.915 2.915 0 0 1-2.132-.891c-.576-.713-.922-1.603-.922-2.494l8.356-.06.173-1.959a6.607 6.607 0 0 0-1.498-4.453c-.98-1.128-2.42-1.662-4.265-1.662zm-2.766 5.76a3.478 3.478 0 0 1 .807-1.96c.403-.475 1.037-.713 1.671-.713 1.383 0 2.075.89 2.075 2.672h-4.553zM40.281 29.497v-6.888a5.524 5.524 0 0 0-.98-3.384c-.69-.831-1.67-1.306-2.765-1.247-.807 0-1.556.178-2.248.535a9.087 9.087 0 0 0-1.671.89 2.794 2.794 0 0 0-.75.535l-.172-1.782-5.244.238v2.078l1.96.534v8.49l-1.96.654v2.078h6.915V30.15l-1.325-.653v-6.888l.345-.356c.289-.356.634-.594.98-.772.403-.237.922-.356 1.383-.356.519 0 .98.178 1.268.594.346.415.461.95.461 1.484v6.294l-1.325.653v2.078h6.857V30.15l-.807-.297c-.403-.178-.691-.297-.922-.356zM50.366 29.556c-.403.06-.807-.178-1.037-.534-.23-.594-.346-1.247-.288-1.84v-5.879h3.515v-2.79H49.04v-4.276l-3.688.713v3.563l-2.363.356v2.493h2.305v4.87c0 2.315.288 3.918.807 4.868.518.89 1.498 1.366 2.881 1.366 1.556-.06 3.112-.594 4.322-1.663l-.922-1.84c-.634.356-1.325.593-2.017.593zM67.942 29.913l-1.901-.475v-6.413c-.058-1.9-.461-3.206-1.21-3.978-.75-.772-2.133-1.128-4.034-1.128-1.844.06-3.689.415-5.475 1.068l.173 3.86H57.8l.403-1.722h.23c.231-.119.52-.178.808-.238.403-.059.749-.118 1.152-.118 1.326 0 1.96.653 1.96 1.96v1.424h-1.787c-4.034 0-6.05 1.425-6.05 4.275-.058 1.128.287 2.197 1.037 3.028.749.772 1.844 1.128 2.88 1.069.692 0 1.384-.178 2.018-.534.518-.238.98-.535 1.44-.891l.634-.534.461 1.662L68 32.05l-.058-2.138zm-5.532-1.841l-.403.356c-.288.297-.634.594-1.038.772a2.413 2.413 0 0 1-1.267.356h-.404a1.346 1.346 0 0 1-1.095-1.543c-.057-.535.23-1.01.634-1.247a3.833 3.833 0 0 1 2.132-.416h1.441v1.722z"/>
            </g>
            <path fill="#48BEFF" d="M71.01 30c-.068-.828.272-1.591.884-2.164A3.215 3.215 0 0 1 74 27.008c.815-.064 1.63.255 2.242.828.544.636.816 1.4.748 2.164.068.828-.272 1.591-.884 2.164-.543.51-1.359.828-2.174.828a2.924 2.924 0 0 1-2.174-.764c-.544-.637-.816-1.464-.748-2.228z"/>
            <g fill="#333">
                <path d="M91.514 23.229a4.931 4.931 0 0 0-1.044-3.315c-.696-.8-1.74-1.2-3.19-1.2-1.566.115-3.132.743-4.292 1.829V13l-4.698.114v1.372l2.146.514v15.257l-2.146.629v1.371h6.38v-1.371l-1.682-.629v-7.371l.464-.515c.174-.171.348-.342.58-.514.58-.4 1.16-.686 1.798-.857.348-.057.696-.114 1.044-.114a1.9 1.9 0 0 1 1.624.628c.406.629.58 1.315.522 2v6.8l-1.682.572v1.371h6.09v-1.371l-1.914-.629V23.23zM105.782 22.6c0-1.371-.406-2.4-1.218-2.971-.986-.686-2.204-.972-3.422-.915-1.74.057-3.422.4-5.046 1.029l.174 3.143h1.682L98.3 21l.29-.114c.754-.229 1.508-.286 2.262-.286 1.624 0 2.436.743 2.436 2.229v2h-2.03c-3.886 0-5.858 1.314-5.858 3.885-.058 1.029.29 2.057.986 2.8.812.686 1.856 1.029 2.958.972 1.334 0 2.668-.686 4.002-2l.522 1.771 3.944-.114V30.77l-2.03-.514V22.6zm-2.668 5.771l-.406.515c-.174.228-.348.343-.522.514-.232.229-.464.4-.754.514-.29.172-.58.286-.87.4-.29.115-.58.172-.87.172-.464.057-.986-.172-1.334-.515a1.994 1.994 0 0 1-.464-1.485c0-.572.29-1.143.812-1.486.87-.4 1.798-.571 2.726-.514h1.798l-.116 1.885zM122.254 19l-4.64.114v1.372l2.146.514v7.371l-.464.515c-.406.4-.812.743-1.334.971a4.282 4.282 0 0 1-2.03.514 1.9 1.9 0 0 1-1.624-.628 2.913 2.913 0 0 1-.522-1.943V19l-4.698.114v1.372l2.146.514v6.971a4.931 4.931 0 0 0 1.044 3.315c.754.857 1.856 1.257 3.016 1.2.754 0 1.566-.172 2.262-.515.928-.4 1.74-.857 2.436-1.485l.232 1.771 4.176-.114V30.77l-2.146-.514V19zM135.304 26.543c-.406-.457-.812-.857-1.334-1.143a7.592 7.592 0 0 0-1.74-.743c-.638-.171-1.218-.343-1.74-.571-.522-.172-.928-.457-1.334-.743-.348-.286-.522-.686-.522-1.143 0-.286.058-.571.174-.8.116-.229.29-.4.522-.514.232-.115.522-.172.754-.229.29-.057.58-.057.87-.057.406 0 .812.057 1.218.114.29 0 .58.115.812.172l.406 1.943h1.682l.058-3.372-.638-.228c-.638-.172-1.276-.343-1.914-.4a18.983 18.983 0 0 0-1.798-.115c-1.218-.057-2.378.343-3.364 1.029a3.42 3.42 0 0 0-1.276 2.857c-.058.629.174 1.257.522 1.829.348.457.812.857 1.334 1.142.522.343 1.16.572 1.74.743.638.172 1.218.4 1.74.572.522.171.928.4 1.334.685a1.4 1.4 0 0 1 .522 1.086c.058.572-.232 1.143-.754 1.486-.754.4-1.566.571-2.378.514-.406 0-.754 0-1.102-.057-.29-.057-.58-.114-.812-.171l-.29-2.172h-1.798v3.657l.58.172c.174.057.348.171.638.171.29 0 .58.057.87.114.29.058.638.115.928.115.348.057.638.057.928.057a9.31 9.31 0 0 0 2.204-.286c.638-.171 1.276-.4 1.798-.8.522-.343.928-.8 1.218-1.314.348-.572.464-1.2.464-1.829.058-.628-.174-1.257-.522-1.771z"/>
            </g>
        </g>
    </g>
</svg>
