<svg xmlns="http://www.w3.org/2000/svg" xmlns:xlink="http://www.w3.org/1999/xlink" width="120" height="26" viewBox="0 0 120 26">
    <defs>
        <path id="a" d="M0 0h200v46H0z"/>
    </defs>
    <g fill="none" fill-rule="evenodd" transform="translate(-1 -10)">
        <mask id="b" fill="#fff">
            <use xlink:href="#a"/>
        </mask>
        <g fill="#01EDC0" fill-rule="nonzero" mask="url(#b)">
            <path d="M13.5 10C20.459 10 26 15.817 26 23.035 26.066 30.253 20.458 36 13.5 36 6.54 36 1 30.253 1 23.035S6.54 10 13.5 10zm0 20.183c3.851 0 6.959-3.223 6.959-7.218s-3.108-7.288-6.96-7.288c-3.783 0-6.959 3.293-6.959 7.288.068 3.995 3.176 7.218 6.96 7.218zM30 11.693c0-.347.275-.693.687-.693h14.626c.412 0 .687.346.687.693v3.878a.691.691 0 0 1-.687.692h-9.82v5.125h8.035c.343 0 .687.346.687.692v3.878c0 .347-.344.693-.687.693h-8.034v8.656c0 .347-.344.693-.687.693h-4.12a.691.691 0 0 1-.687-.693V11.693zM50 11.69a.69.69 0 0 1 .687-.69h14.626a.69.69 0 0 1 .687.69v3.868a.69.69 0 0 1-.687.69h-9.82v4.42h8.035c.343 0 .687.346.687.691v3.868a.69.69 0 0 1-.687.69h-8.034v4.834h9.82a.69.69 0 0 1 .686.691v3.867a.69.69 0 0 1-.687.691H50.687a.69.69 0 0 1-.687-.69V11.69zM71 11.693c0-.347.262-.693.654-.693h3.99c.328 0 .655.346.655.693v19.044h8.047c.392 0 .654.346.654.692v3.878c0 .347-.262.693-.654.693H71.654c-.392 0-.654-.346-.654-.693V11.693zM90 11.693c0-.347.305-.693.61-.693h3.78c.305 0 .61.346.61.693v23.614c0 .347-.305.693-.61.693h-3.78c-.305 0-.61-.346-.61-.693V11.693zM97.07 34.112l11.135-23.702c.139-.205.346-.41.623-.41h.346c.276 0 .484.205.622.41l11.135 23.702c.208.478-.069.888-.622.888h-3.943c-.622 0-.899-.205-1.244-.888l-1.314-2.8h-9.683l-1.314 2.8c-.208.41-.553.82-1.314.82h-3.942c-.415.136-.692-.342-.484-.82zm14.663-7.514l-2.698-5.806h-.069l-2.697 5.806h5.464z"/>
        </g>
    </g>
</svg>
