<svg xmlns="http://www.w3.org/2000/svg" xmlns:xlink="http://www.w3.org/1999/xlink" width="166" height="22" viewBox="0 0 166 22">
    <defs>
        <path id="a" d="M0 0h200v46H0z"/>
    </defs>
    <g fill="none" fill-rule="evenodd" transform="translate(0 -12)">
        <mask id="b" fill="#fff">
            <use xlink:href="#a"/>
        </mask>
        <g mask="url(#b)">
            <path fill="#211915" fill-rule="nonzero" d="M60 32.689h6.995v-.88h-1.501c-.054 0-.188-.026-.375-.078a2 2 0 0 1-.617-.233c-.214-.21-.295-.468-.295-.96V15.373l6.03 17.315h1.984l6.11-17.34v15.525a.769.769 0 0 1-.32.624c-.162.129-.564.259-.939.31h-1.555v.88h9.891v-.88h-1.475c-.885 0-1.394-.492-1.394-1.27V16.203c0-.57.055-.752.35-.933.16-.155.562-.286.991-.337h1.554V14h-8.04l-4.69 13.22L68.147 14h-8.12v.934H61.5c.803 0 1.34.492 1.34 1.27v13.815l.027.518c0 .752-.59 1.272-1.393 1.272H60v.88zm25.793-17.833h1.528c.054 0 .215.051.375.104.24.051.456.13.59.233.214.18.294.362.294.673v11.846c0 2.126.588 3.343 1.984 4.096C91.824 32.56 93.86 33 95.816 33c2.224 0 4.423-.622 5.521-1.503a4.002 4.002 0 0 0 1.232-2.048c.215-.7.323-1.581.323-2.514V16.152c0-.778.563-1.296 1.42-1.296h1.5V14h-7.048v.856h1.501c.75 0 1.26.544 1.26 1.296v10.913c0 2.955-1.26 4.172-4.421 4.172-2.092 0-3.646-.7-4.128-1.917-.16-.39-.215-.908-.215-2.022V16.152c0-.752.537-1.296 1.368-1.296H95.6V14h-9.808v.856zm20.402 17.833h7.103v-.88h-1.528c-.027 0-.19-.026-.401-.053-.243-.077-.484-.155-.645-.259-.24-.208-.322-.415-.322-.96V17.785l9.837 14.904h2.974V15.84c0-.39.321-.7.912-.856.16-.025.348-.078.375-.078h1.5V14h-6.913v.907h1.473c.83 0 1.366.519 1.366 1.297v11.56L112.814 14h-6.592v.934h1.474c.804 0 1.367.492 1.367 1.27v14.333c0 .752-.59 1.272-1.393 1.272h-1.475v.88z"/>
            <path fill="#211915" d="M126 32.744h10.531c5.458 0 9.393-3.975 9.393-9.487 0-3.18-1.548-6-4.18-7.615-1.576-.948-3.285-1.385-5.51-1.385H126v.897h1.52c.815 0 1.357.488 1.357 1.283v14.178c0 .487-.108.77-.353.975-.163.103-.598.231-.977.334H126v.82zm7.085-2V16.18c0-.871.217-1.102 1.06-1.102h2.496c1.384 0 2.714.64 3.42 1.666.489.744.842 1.743 1.06 3.206.135 1.025.215 2.538.215 3.64 0 5.718-1.574 8.36-4.994 8.36h-2.17c-.816 0-1.087-.283-1.087-1.207zm14.645-7.231c0 5.667 3.666 9.487 9.122 9.487 5.457 0 9.148-3.82 9.148-9.487 0-2.667-.842-5-2.47-6.795-1.63-1.82-3.8-2.718-6.678-2.718s-4.968.873-6.706 2.718c-1.573 1.719-2.416 4.129-2.416 6.795zm5.078-5.359c.541-2.025 1.926-3.076 4.044-3.076 2.117 0 3.475 1.051 4.072 3.076.379 1.308.488 2.693.488 5.36 0 2.64-.109 4-.488 5.333-.57 2-1.955 3.077-4.072 3.077-2.118 0-3.475-1.077-4.044-3.077-.408-1.307-.543-2.667-.543-5.334 0-2.692.135-4.025.543-5.359z"/>
            <path fill="#211915" fill-rule="nonzero" d="M0 33h17.28l.532-6.113h-1.014c-.4 3.4-2.586 5.27-6.212 5.27H7.92c-.72 0-1.014-.342-1.014-1.107v-7.958h1.387c1.413 0 2.667.316 3.227.817.559.526.96 1.502.96 2.398 0 .158 0 .343-.027.528h.986v-8.302l-.986-.026v.21c0 2.293-1.467 3.532-4.16 3.532H6.906v-6.483c0-.711.214-.922.88-.922h2.666c2.107 0 3.2.316 4.347 1.264.852.686 1.52 1.714 1.68 2.636.052.237.08.552.106.949h1.12L17.253 14H0v.922h1.493c.774 0 1.307.475 1.307 1.291V30.84c0 .765-.533 1.266-1.333 1.266H0V33zm18.095-18.078h1.467c.826 0 1.36.502 1.36 1.318v14.546c0 .527-.108.79-.321 1.003-.187.131-.587.263-.96.316h-1.546V33H34.6l.4-7.484h-1.093c-.64 4.217-2.693 6.641-5.733 6.641H26.04c-.721 0-1.04-.343-1.04-1.133V16.24c0-.79.533-1.318 1.333-1.318h1.494V14h-9.733v.922z"/>
            <path fill="#6887A6" fill-rule="nonzero" d="M58.472 27.739a10.324 10.324 0 0 0 1.163-4.28H48.589v4.365h9.836l.047-.085zM47.35 17.665h-9.753a10.371 10.371 0 0 0-1.434 4.64H47.35v-4.64zm1.239 0v4.64h11.038a10.409 10.409 0 0 0-1.431-4.64h-9.607zm-1.239 5.793H36.157a10.36 10.36 0 0 0 1.207 4.366h9.987v-4.366zm0 5.518h-9.277c2.01 2.845 5.399 4.767 9.277 4.932v-4.932zm1.239-12.464h8.819c-2.011-2.58-5.195-4.308-8.82-4.506v4.506zm0 12.464V33.9c3.818-.208 7.145-2.115 9.128-4.924h-9.128zM47.35 16.512V12c-3.685.156-6.928 1.899-8.965 4.512h8.965z"/>
        </g>
    </g>
</svg>
